<mxfile host="app.diagrams.net" agent="Mozilla/5.0 (Windows NT 10.0; Win64; x64) AppleWebKit/537.36 (KHTML, like Gecko) Chrome/128.0.0.0 Safari/537.36 OPR/114.0.0.0" version="25.0.3">
  <diagram name="Страница — 1" id="2kTKl8VSh-JuEA93RFjC">
    <mxGraphModel dx="599" dy="346" grid="1" gridSize="10" guides="1" tooltips="1" connect="1" arrows="1" fold="1" page="1" pageScale="1" pageWidth="1169" pageHeight="827" math="0" shadow="0">
      <root>
        <mxCell id="0" />
        <mxCell id="1" parent="0" />
        <mxCell id="vYSny2LerAcYpcA88qCh-3" value="" style="ellipse;whiteSpace=wrap;html=1;aspect=fixed;" vertex="1" parent="1">
          <mxGeometry x="295" y="190" width="50" height="50" as="geometry" />
        </mxCell>
        <mxCell id="vYSny2LerAcYpcA88qCh-4" value="" style="ellipse;whiteSpace=wrap;html=1;aspect=fixed;" vertex="1" parent="1">
          <mxGeometry x="295" y="260" width="50" height="50" as="geometry" />
        </mxCell>
        <mxCell id="vYSny2LerAcYpcA88qCh-5" value="" style="ellipse;whiteSpace=wrap;html=1;aspect=fixed;" vertex="1" parent="1">
          <mxGeometry x="295" y="334" width="50" height="50" as="geometry" />
        </mxCell>
        <mxCell id="vYSny2LerAcYpcA88qCh-7" value="" style="ellipse;whiteSpace=wrap;html=1;aspect=fixed;" vertex="1" parent="1">
          <mxGeometry x="550" y="220" width="50" height="50" as="geometry" />
        </mxCell>
        <mxCell id="vYSny2LerAcYpcA88qCh-10" value="" style="endArrow=none;dashed=1;html=1;dashPattern=1 3;strokeWidth=2;rounded=0;" edge="1" parent="1">
          <mxGeometry width="50" height="50" relative="1" as="geometry">
            <mxPoint x="320" y="460" as="sourcePoint" />
            <mxPoint x="320" y="410" as="targetPoint" />
          </mxGeometry>
        </mxCell>
        <mxCell id="vYSny2LerAcYpcA88qCh-11" value="" style="ellipse;whiteSpace=wrap;html=1;aspect=fixed;" vertex="1" parent="1">
          <mxGeometry x="295" y="480" width="50" height="50" as="geometry" />
        </mxCell>
        <mxCell id="vYSny2LerAcYpcA88qCh-12" value="" style="ellipse;whiteSpace=wrap;html=1;aspect=fixed;" vertex="1" parent="1">
          <mxGeometry x="550" y="480" width="50" height="50" as="geometry" />
        </mxCell>
        <mxCell id="vYSny2LerAcYpcA88qCh-13" value="" style="endArrow=none;dashed=1;html=1;dashPattern=1 3;strokeWidth=2;rounded=0;" edge="1" parent="1">
          <mxGeometry width="50" height="50" relative="1" as="geometry">
            <mxPoint x="574.66" y="460" as="sourcePoint" />
            <mxPoint x="574.66" y="410" as="targetPoint" />
          </mxGeometry>
        </mxCell>
        <mxCell id="vYSny2LerAcYpcA88qCh-15" value="" style="ellipse;whiteSpace=wrap;html=1;aspect=fixed;" vertex="1" parent="1">
          <mxGeometry x="550" y="310" width="50" height="50" as="geometry" />
        </mxCell>
        <mxCell id="vYSny2LerAcYpcA88qCh-16" value="" style="endArrow=classic;html=1;rounded=0;exitX=1;exitY=0.5;exitDx=0;exitDy=0;entryX=0;entryY=0.5;entryDx=0;entryDy=0;" edge="1" parent="1" source="vYSny2LerAcYpcA88qCh-3" target="vYSny2LerAcYpcA88qCh-7">
          <mxGeometry width="50" height="50" relative="1" as="geometry">
            <mxPoint x="450" y="430" as="sourcePoint" />
            <mxPoint x="500" y="380" as="targetPoint" />
          </mxGeometry>
        </mxCell>
        <mxCell id="vYSny2LerAcYpcA88qCh-17" value="" style="endArrow=classic;html=1;rounded=0;exitX=1;exitY=0.5;exitDx=0;exitDy=0;entryX=0;entryY=0.5;entryDx=0;entryDy=0;" edge="1" parent="1" source="vYSny2LerAcYpcA88qCh-4" target="vYSny2LerAcYpcA88qCh-7">
          <mxGeometry width="50" height="50" relative="1" as="geometry">
            <mxPoint x="355" y="225" as="sourcePoint" />
            <mxPoint x="560" y="255" as="targetPoint" />
          </mxGeometry>
        </mxCell>
        <mxCell id="vYSny2LerAcYpcA88qCh-18" value="" style="endArrow=classic;html=1;rounded=0;exitX=1;exitY=0.5;exitDx=0;exitDy=0;entryX=0;entryY=0.5;entryDx=0;entryDy=0;" edge="1" parent="1" source="vYSny2LerAcYpcA88qCh-5" target="vYSny2LerAcYpcA88qCh-7">
          <mxGeometry width="50" height="50" relative="1" as="geometry">
            <mxPoint x="365" y="235" as="sourcePoint" />
            <mxPoint x="570" y="265" as="targetPoint" />
          </mxGeometry>
        </mxCell>
        <mxCell id="vYSny2LerAcYpcA88qCh-19" value="" style="endArrow=classic;html=1;rounded=0;exitX=1;exitY=0.5;exitDx=0;exitDy=0;entryX=0;entryY=0.5;entryDx=0;entryDy=0;" edge="1" parent="1" source="vYSny2LerAcYpcA88qCh-11" target="vYSny2LerAcYpcA88qCh-7">
          <mxGeometry width="50" height="50" relative="1" as="geometry">
            <mxPoint x="375" y="245" as="sourcePoint" />
            <mxPoint x="580" y="275" as="targetPoint" />
          </mxGeometry>
        </mxCell>
        <mxCell id="vYSny2LerAcYpcA88qCh-21" value="" style="endArrow=classic;html=1;rounded=0;exitX=1;exitY=0.5;exitDx=0;exitDy=0;entryX=0;entryY=0.5;entryDx=0;entryDy=0;" edge="1" parent="1" source="vYSny2LerAcYpcA88qCh-4" target="vYSny2LerAcYpcA88qCh-15">
          <mxGeometry width="50" height="50" relative="1" as="geometry">
            <mxPoint x="355" y="225" as="sourcePoint" />
            <mxPoint x="560" y="255" as="targetPoint" />
          </mxGeometry>
        </mxCell>
        <mxCell id="vYSny2LerAcYpcA88qCh-22" value="" style="endArrow=classic;html=1;rounded=0;exitX=1;exitY=0.5;exitDx=0;exitDy=0;entryX=0;entryY=0.5;entryDx=0;entryDy=0;" edge="1" parent="1" source="vYSny2LerAcYpcA88qCh-3" target="vYSny2LerAcYpcA88qCh-15">
          <mxGeometry width="50" height="50" relative="1" as="geometry">
            <mxPoint x="355" y="295" as="sourcePoint" />
            <mxPoint x="560" y="255" as="targetPoint" />
          </mxGeometry>
        </mxCell>
        <mxCell id="vYSny2LerAcYpcA88qCh-23" value="" style="endArrow=classic;html=1;rounded=0;exitX=1;exitY=0.5;exitDx=0;exitDy=0;entryX=0;entryY=0.5;entryDx=0;entryDy=0;" edge="1" parent="1" source="vYSny2LerAcYpcA88qCh-5" target="vYSny2LerAcYpcA88qCh-15">
          <mxGeometry width="50" height="50" relative="1" as="geometry">
            <mxPoint x="355" y="369" as="sourcePoint" />
            <mxPoint x="560" y="255" as="targetPoint" />
          </mxGeometry>
        </mxCell>
        <mxCell id="vYSny2LerAcYpcA88qCh-24" value="" style="endArrow=classic;html=1;rounded=0;exitX=1;exitY=0.5;exitDx=0;exitDy=0;entryX=0;entryY=0.5;entryDx=0;entryDy=0;" edge="1" parent="1" source="vYSny2LerAcYpcA88qCh-11" target="vYSny2LerAcYpcA88qCh-15">
          <mxGeometry width="50" height="50" relative="1" as="geometry">
            <mxPoint x="355" y="515" as="sourcePoint" />
            <mxPoint x="560" y="255" as="targetPoint" />
          </mxGeometry>
        </mxCell>
        <mxCell id="vYSny2LerAcYpcA88qCh-25" value="" style="endArrow=classic;html=1;rounded=0;exitX=1;exitY=0.5;exitDx=0;exitDy=0;entryX=0;entryY=0.5;entryDx=0;entryDy=0;" edge="1" parent="1" source="vYSny2LerAcYpcA88qCh-4" target="vYSny2LerAcYpcA88qCh-12">
          <mxGeometry width="50" height="50" relative="1" as="geometry">
            <mxPoint x="355" y="295" as="sourcePoint" />
            <mxPoint x="560" y="345" as="targetPoint" />
          </mxGeometry>
        </mxCell>
        <mxCell id="vYSny2LerAcYpcA88qCh-26" value="" style="endArrow=classic;html=1;rounded=0;exitX=1;exitY=0.5;exitDx=0;exitDy=0;entryX=0;entryY=0.5;entryDx=0;entryDy=0;" edge="1" parent="1" source="vYSny2LerAcYpcA88qCh-3" target="vYSny2LerAcYpcA88qCh-12">
          <mxGeometry width="50" height="50" relative="1" as="geometry">
            <mxPoint x="355" y="225" as="sourcePoint" />
            <mxPoint x="560" y="345" as="targetPoint" />
          </mxGeometry>
        </mxCell>
        <mxCell id="vYSny2LerAcYpcA88qCh-27" value="" style="endArrow=classic;html=1;rounded=0;exitX=1;exitY=0.5;exitDx=0;exitDy=0;entryX=0;entryY=0.5;entryDx=0;entryDy=0;" edge="1" parent="1" source="vYSny2LerAcYpcA88qCh-5" target="vYSny2LerAcYpcA88qCh-12">
          <mxGeometry width="50" height="50" relative="1" as="geometry">
            <mxPoint x="355" y="369" as="sourcePoint" />
            <mxPoint x="560" y="345" as="targetPoint" />
          </mxGeometry>
        </mxCell>
        <mxCell id="vYSny2LerAcYpcA88qCh-28" value="" style="endArrow=classic;html=1;rounded=0;exitX=1;exitY=0.5;exitDx=0;exitDy=0;entryX=0;entryY=0.5;entryDx=0;entryDy=0;" edge="1" parent="1" source="vYSny2LerAcYpcA88qCh-11" target="vYSny2LerAcYpcA88qCh-12">
          <mxGeometry width="50" height="50" relative="1" as="geometry">
            <mxPoint x="355" y="515" as="sourcePoint" />
            <mxPoint x="560" y="345" as="targetPoint" />
          </mxGeometry>
        </mxCell>
      </root>
    </mxGraphModel>
  </diagram>
</mxfile>
